# xmcd CD database file
#
# Track frame offsets:
#	150
#	24209
#	41312
#	61756
#
# Disc length: 1082 seconds
#
# Revision: 4
# Processed by: cddbd v1.5.1PL0 Copyright (c) Steve Scherf et al.
# Submitted via: CDex 1.50Beta7
#
DISCID=20043804
DTITLE=Despoina Vandi - Ypofero
DYEAR=1900
DGENRE=Pop
TTITLE0=Ypofero
TTITLE1=Stamata na mou kollas
TTITLE2=Lypamai
TTITLE3=Mi mou kleineis to fos
EXTD=
EXTT0=
EXTT1=
EXTT2=
EXTT3=
PLAYORDER=
